<svg version="1" xmlns="http://www.w3.org/2000/svg" width="682.667" height="682.667" viewBox="0 0 512.000000 512.000000"><path d="M237.9 31.5c-.2.1-3.5.6-7.3 1-5.8.5-15.1 2.2-29.6 5.1-1.3.3-8.5 2.5-16 5C113.7 66.3 58.9 124.8 39.3 198c-1.4 5.2-2.7 10.4-2.8 11.5-.2 1.1-1.2 6.7-2.1 12.5-2.5 14.8-2.4 63.9.1 68.1.2.3.7 2.8 1.1 5.5 1 7.9 6.1 26.8 10 37.2 20.5 55.1 59.7 98.6 111.9 124.2 20.5 10.1 46.5 18.2 65.4 20.5 3 .4 6.3.9 7.5 1.2 4.8 1.2 42.5 1 52.1-.3 40.6-5.3 78.5-20.6 109-43.9 3.6-2.8 5-3.9 11.5-9.5 28.2-24.3 51.8-58.9 64.3-94.7 3.8-10.7 9.1-32 10.2-41.3.4-3 1-6.4 1.2-7.5.9-3.6 1.1-42.9.2-49-.4-3.3-1.1-8.3-1.5-11-4.1-32.8-19.3-69.3-41.3-99.5-3-4.1-5.7-7.7-6-8-.4-.3-1.9-2.1-3.5-4-9-11.1-24-25.1-38.1-35.5C360.8 54 324.5 38.7 292 34c-4.1-.6-8.6-1.4-10-1.7-2.8-.6-43.6-1.4-44.1-.8zM280 56.3c1.4.3 4.5.8 7 1.2 8.6 1.3 10.6 1.7 19.9 4.1 24.3 6.3 48.4 18 68.9 33.4 4.8 3.6 9.4 7.2 10.3 8 .8.8 4 3.8 7 6.6 11.3 10.7 24.9 26.6 24.9 29.1 0 .8-.8 2.6-1.9 4.1-1 1.5-7.4 11.7-14.2 22.7-11.9 19.3-19.5 31.7-49.1 79.5-7.7 12.4-14.4 23.2-14.9 24-.5.8-5.1 8.4-10.4 16.8-5.2 8.4-9.5 15.5-9.5 15.8 0 .3-.5 1-1 1.7-.6.7-3.4 5-6.3 9.7-10 16.2-18.8 30.5-20 32.5-.7 1.1-2.4 3.9-3.9 6.2-1.6 2.3-2.8 4.6-2.8 5.1 0 .6-.4 1.2-.8 1.4-.4.2-3 4-5.7 8.6-2.8 4.6-5.7 9.3-6.5 10.6-.8 1.3-3.1 5-5 8.1-3.5 5.7-7.1 11.6-8.9 14.5-1.2 1.8-.3 3-10.1-13-4.6-7.4-9.8-15.8-11.5-18.5-1.8-2.8-7.9-12.7-13.7-22-5.7-9.4-19.8-32.1-31.3-50.5s-26-41.8-32.3-52c-6.3-10.2-12.4-20.1-13.6-22-2.3-3.6-5.3-8.4-16.8-27-3.6-5.8-12.9-20.8-20.7-33.3l-14.2-22.8 3.3-4.2c1.8-2.3 3.7-4.7 4.2-5.3 1.6-2.2 6.8-7.9 11.5-12.9 31.8-33.5 76-55.3 121.6-60.1 3.3-.4 6.2-.8 6.4-1 .6-.5 37.2.3 40.1.9z"/><path d="M238.3 73.9c-2.1.5-8 8.2-9.6 12.5-.4 1 1.8 6.8 6.2 15.7l6.8 14.1-4.9 19.2c-2.7 10.5-6.7 26.1-8.9 34.6s-4.3 16.6-4.5 18c-.3 1.4-.8 3.4-1.1 4.5-.4 1.1-.8 2.4-.9 3-.1.5-3 12-6.4 25.4-6.3 24.3-6.3 24.3-4.5 27.5 1.6 2.7 19.9 32.5 31.8 51.6 8.8 14.1 12.8 20 13.6 20 1.1 0 4.1-3.4 4.1-4.7 0-.6.3-1.3.8-1.5.4-.2 2.9-3.9 5.6-8.3 2.6-4.4 7.1-11.7 10-16.3 2.8-4.6 5.8-9.6 6.7-11 .9-1.5 5.7-9.4 10.8-17.5 7.2-11.6 9.1-15.4 8.7-17.5-.2-1.5-3.4-14.4-7.1-28.7-3.7-14.3-6.9-26.7-7.1-27.5-.2-.8-1.2-4.9-2.3-9-1-4.1-5.1-19.8-8.9-34.8l-7-27.2 6.9-14c4.5-9.1 6.6-14.5 6.2-15.7-1.8-5-7.6-12.1-10.1-12.6-3.6-.7-32.1-.5-34.9.2z"/></svg>