<svg width="256" height="256" viewBox="0 0 256 256" fill="none" xmlns="http://www.w3.org/2000/svg">
<g clip-path="url(#clip0)">
<path fill-rule="evenodd" clip-rule="evenodd" d="M129.774 9.23195L140.956 10.0139C166.627 11.809 186.489 18.0366 202.764 28.2607C219.038 38.4849 231.379 52.6813 239.239 70.2204C247.098 87.7596 250.501 108.296 248.706 133.966L248.322 139.456C246.527 165.126 240.3 184.989 230.075 201.263C219.851 217.538 205.655 229.879 188.116 237.738C170.577 245.598 150.041 249.001 124.37 247.206L113.188 246.424C87.5174 244.629 67.6549 238.401 51.3803 228.177C35.1057 217.953 22.7649 203.756 14.9052 186.217C7.0456 168.678 3.64289 148.142 5.43793 122.472L5.82184 116.982C7.61688 91.3114 13.8445 71.4489 24.0687 55.1743C34.2928 38.8997 48.4892 26.5589 66.0284 18.6993C83.5675 10.8396 104.103 7.43691 129.774 9.23195Z" fill="#FFCD69"/>
<path fill-rule="evenodd" clip-rule="evenodd" d="M118.404 65.3632C119.395 65.1455 120.122 65.9909 120.586 67.8994C120.974 67.397 121.446 67.1733 122 67.2283C123.672 67.7256 122.943 70.4424 121.354 72.2862C126.41 70.7736 130.833 75.1479 134.623 85.4091C135.856 84.2592 141.965 77.5391 144.178 78.113C146.391 78.687 150.784 97.5985 155.333 141.593C158.467 145.042 168.565 153.631 161.286 170.136C161.625 172.453 161.827 175.017 161.893 177.828C162.637 178.026 163.378 178.357 164.118 178.817L164.207 178.874L164.26 178.68C165.269 175.227 168.483 173.456 172.867 173.742L173.19 173.767C177.848 174.172 180.875 176.598 181.168 180.413L181.177 180.593L181.41 180.552C184.35 180.07 187.063 181.46 189.655 184.644C190.653 183.443 191.72 182.691 193.038 182.369C195.524 181.761 197.47 183.049 198.164 185.151L198.209 185.298L198.301 185.211C199.9 183.759 201.878 183.612 204.03 184.609L204.279 184.729C208.534 187.048 210.603 190.36 210.487 194.667C201.539 195.996 44.6424 197.33 41.7692 194.667C39.9684 191.954 39.2992 183.606 40.9569 180.07C41.2426 179.46 42.0844 179.402 42.4514 179.965C42.8365 180.557 43.5999 181.463 44.6424 182.587L45.4378 183.429L46.0037 184.014L46.8785 184.9L46.8661 184.777C46.7668 183.603 46.8179 182.413 47.0704 181.255L47.1747 180.822C47.4673 179.714 47.9453 178.698 48.6301 177.798C48.9174 177.42 49.4556 177.348 49.8321 177.636C52.7997 179.905 54.7785 183.829 55.3811 189.822L55.3975 190.005L55.711 189.411L55.9188 189.041C56.8966 187.35 57.8818 186.48 59.3349 186.284C60.3574 186.146 61.2656 186.407 62.072 187.047L62.3235 187.262L62.3361 187.173C62.5765 185.673 63.3042 184.736 64.5751 184.489L64.7698 184.457C66.3309 184.246 67.394 184.835 68.5948 186.62C70.1217 183.684 71.9146 182.281 73.9979 182.591L74.1037 182.608L74.1003 182.44C74.067 178.686 75.9871 176.164 79.2689 175.611L79.524 175.572C79.9561 175.514 80.3753 175.493 80.78 175.51C81.6562 164.515 83.299 154.477 85.7078 145.395C83.2545 142.269 83.5357 137.915 86.5512 132.332C86.2283 114.004 94.3606 77.9803 95.9473 77.6287C97.534 77.2771 100.441 80.6246 105.955 85.5844C107.591 81.0086 112.153 70.8452 118.404 72.0536C118.494 71.8863 118.557 71.7832 118.593 71.7443C117.162 70.9997 116.15 65.8582 118.404 65.3632Z" fill="white"/>
<path fill-rule="evenodd" clip-rule="evenodd" d="M123.742 59.2417C123.996 59.5527 124.159 59.9179 124.342 60.468C124.422 60.7086 124.502 60.9634 124.579 61.2247C124.705 61.058 124.852 60.9169 125.024 60.7957C125.654 60.3523 126.517 60.5402 126.829 61.3489C126.98 61.7425 126.968 62.1563 126.871 62.64C126.696 63.5045 126.365 64.2809 125.916 64.8425L125.77 65.015C125.745 65.0429 125.719 65.0712 125.69 65.1012L125.384 65.4112C125.256 65.5405 125.189 65.6171 125.127 65.7041C125.187 65.663 125.254 65.6287 125.326 65.6032L125.398 65.5785C125.532 65.3375 125.779 65.1652 126.073 65.1393C126.293 65.1201 126.5 65.1856 126.664 65.3088C131.649 64.8651 136.298 71.5715 138.609 78.737L140.237 77.1695C145.432 72.1723 147.25 70.7183 148.613 71.595C149.731 72.3143 152.296 83.8059 154.716 98.4401C165.903 97.9271 179.031 98.5301 186.072 100.109C186.534 100.213 186.825 100.673 186.722 101.136C186.618 101.599 186.16 101.891 185.697 101.787C178.859 100.253 165.995 99.6591 154.995 100.148C155.282 101.92 155.566 103.732 155.844 105.572C163.741 105.556 169.637 106.152 176.113 107.965C179.047 108.787 181.827 109.836 184.443 111.133C184.867 111.344 185.041 111.86 184.831 112.285C184.621 112.711 184.107 112.885 183.682 112.674C181.165 111.426 178.486 110.415 175.651 109.621C169.429 107.879 163.723 107.289 156.103 107.291C156.283 108.521 156.462 109.762 156.637 111.009C164.87 112.937 173.783 116.205 179.123 120.355C179.498 120.646 179.566 121.186 179.276 121.561C178.986 121.937 178.447 122.005 178.073 121.714C173.1 117.849 164.732 114.739 156.891 112.841C157.914 120.299 158.793 127.925 159.365 134.926C160.616 136.393 161.957 138.009 163.436 139.815C165.512 142.353 166.924 145.332 167.541 148.507C168.406 152.969 167.721 158.085 165.182 163.326C165.693 166.989 165.908 170.201 165.917 173.739C165.917 173.934 165.853 174.114 165.745 174.258C166.09 174.414 166.437 174.601 166.784 174.817L166.873 174.874L166.926 174.68C167.935 171.227 171.15 169.456 175.534 169.742L175.857 169.767C180.515 170.172 183.541 172.598 183.834 176.413L183.844 176.593L184.076 176.552C187.016 176.07 189.729 177.46 192.321 180.643C193.32 179.443 194.387 178.691 195.704 178.369C198.191 177.761 200.137 179.049 200.83 181.151L200.876 181.298L200.968 181.211C202.566 179.759 204.545 179.612 206.697 180.609L206.946 180.729C209.012 181.764 211.083 183.716 213.138 186.222C213.439 186.589 213.386 187.131 213.02 187.432C212.654 187.734 212.114 187.681 211.813 187.314C209.899 184.98 207.975 183.167 206.179 182.267C203.97 181.16 202.303 181.582 200.955 184.028C200.499 184.855 199.239 184.446 199.354 183.508C199.644 181.127 198.224 179.523 196.111 180.04C194.713 180.381 193.586 181.533 192.344 183.627L192.103 184.042L191.351 185.389C191.12 185.804 190.597 185.951 190.184 185.719C189.771 185.487 189.623 184.963 189.855 184.549L190.337 183.68C190.537 183.32 190.703 183.03 190.87 182.749C191.006 182.519 191.141 182.299 191.277 182.087L191.422 182.278C188.696 178.683 186.117 177.522 183.256 178.535C182.668 178.744 182.061 178.273 182.115 177.65C182.424 174.09 180.043 171.857 175.708 171.48C171.375 171.102 168.646 172.891 168.337 176.451C168.278 177.139 167.474 177.48 166.941 177.043C164.102 174.72 161.533 174.71 158.533 177.251C158.131 177.591 157.521 177.492 157.247 177.041C155.925 174.863 154.222 173.218 152.704 172.614C151.278 172.045 150.231 172.436 149.535 173.956C149.261 174.554 148.445 174.635 148.061 174.101C145.541 170.606 143.188 170.014 141.841 172.321C141.623 172.696 141.159 172.849 140.761 172.677C135.53 170.414 132.679 172.55 133.643 177.476C133.842 178.493 132.406 178.929 132.009 177.971C130.886 175.259 125.542 173.631 124.221 175.212C123.327 176.234 123.587 178.09 125.263 180.746C125.517 181.147 125.397 181.678 124.997 181.932C124.597 182.186 124.067 182.066 123.814 181.665C121.778 178.439 121.411 175.817 122.919 174.094C124.592 172.09 128.875 172.767 131.576 174.832L131.778 174.991L131.78 174.96C132.158 170.836 135.633 168.965 140.586 170.758L140.774 170.829L140.873 170.702C142.848 168.231 145.856 168.886 148.547 171.955L148.667 172.094L148.763 171.976C149.857 170.687 151.405 170.333 153.105 170.929L153.337 171.016C154.958 171.661 156.623 173.131 158.008 175.076L158.187 175.336L158.204 175.325C160.239 173.839 162.231 173.327 164.202 173.742L164.196 172.899C164.166 170.54 164.036 168.299 163.777 165.925L163.551 166.292C163.302 166.696 162.774 166.821 162.371 166.571C161.968 166.322 161.843 165.792 162.092 165.388C165.723 159.495 166.803 153.709 165.858 148.835C165.296 145.942 164.007 143.225 162.11 140.906L160.676 139.163C159.895 138.218 159.153 137.33 158.442 136.49C158.052 136.438 157.739 136.119 157.707 135.71L157.7 135.619C155.077 132.554 152.851 130.143 150.578 127.963L150.222 127.624C147.872 125.401 145.864 123.861 144.287 123.123C142.965 122.505 142.129 122.49 141.602 123.042C143.001 123.647 144.415 124.962 145.256 126.843C145.45 127.276 145.256 127.785 144.824 127.979C144.392 128.173 143.885 127.98 143.691 127.546C143.104 126.234 142.263 125.332 141.299 124.82C140.598 124.448 139.891 124.335 139.606 124.429C139.231 124.552 139.008 124.785 138.859 125.155L138.81 125.286C138.763 125.417 138.738 125.534 138.689 125.828C140.63 126.108 142.805 127.384 143.909 128.944C144.183 129.332 144.092 129.868 143.705 130.143C143.319 130.417 142.784 130.326 142.51 129.939C141.601 128.654 139.575 127.549 138.04 127.498C137.918 127.494 137.739 127.558 137.685 127.613C137.569 127.733 137.467 127.923 137.383 128.186C137.251 128.597 137.578 129.667 137.981 130.256L138.158 130.2C139.45 129.866 140.904 130.653 142.112 132.077C142.418 132.438 142.375 132.981 142.014 133.288C141.653 133.596 141.112 133.552 140.805 133.19C139.977 132.214 139.091 131.734 138.587 131.864C138.568 131.869 138.532 131.94 138.522 132.091C138.463 132.942 138.841 133.722 139.695 134.742C140.181 135.325 140.69 135.886 141.22 136.425L141.24 136.448L141.52 136.748C142.016 137.295 142.952 138.37 144.175 139.795L144.679 140.383C146.582 142.604 149.059 145.527 151.629 148.588C151.723 148.699 151.783 148.827 151.812 148.961C154.326 152.4 155.773 156.614 155.882 160.88C155.894 161.354 155.52 161.749 155.047 161.761C154.573 161.773 154.18 161.399 154.167 160.924C154.057 156.608 152.45 152.339 149.689 149.028C149.625 148.952 149.577 148.868 149.544 148.78L147.086 145.862C145.057 143.465 143.24 141.335 141.944 139.834C141.957 139.903 141.96 139.973 141.953 140.045C141.915 140.479 141.562 140.808 141.139 140.827L141.079 140.825L133.847 142.535C133.791 142.548 133.736 142.555 133.681 142.557L133.717 142.697L134.835 147.238C136.712 155.047 137.363 159.02 137.226 163.722L137.21 164.165L137.193 164.622L136.544 165.022C134.042 166.521 131.779 167.067 127.372 167.471L126.833 167.518L123.509 167.788L123.5 166.864C123.439 160.966 122.883 155.072 121.846 149.253C121.646 149.517 121.374 149.605 121.05 149.622L118.166 149.616C118.116 150.67 118.031 151.722 117.912 152.771L117.448 152.723C118.329 152.835 119.226 152.821 120.102 152.683C120.17 152.281 120.234 151.881 120.295 151.481C120.361 151.051 120.734 150.745 121.157 150.752L121.273 150.762C121.741 150.834 122.062 151.273 121.99 151.742L121.858 152.565C122.026 152.675 122.156 152.844 122.214 153.053C122.341 153.511 122.073 153.985 121.617 154.112L121.6 154.117C121.387 155.337 121.153 156.554 120.899 157.765L120.964 157.756L120.973 157.731C121.024 157.621 121.098 157.521 121.193 157.439L121.295 157.364C122.256 156.758 123.124 157.91 122.704 158.73C122.489 159.147 122.181 159.288 121.752 159.371C121.343 159.45 120.929 159.502 120.513 159.527C120.406 160.006 120.295 160.483 120.18 160.96L122.158 160.937C122.632 160.932 123.02 161.312 123.025 161.787C123.03 162.262 122.651 162.651 122.177 162.656L115.446 162.733C115.328 162.733 115.245 162.728 115.134 162.705C114.92 162.66 114.721 162.56 114.556 162.376C114.218 161.998 114.232 161.65 114.367 161.229C116.043 155.929 116.746 150.32 116.431 144.77C116.404 144.295 116.765 143.889 117.238 143.862C117.711 143.835 118.116 144.198 118.143 144.672C118.204 145.745 118.229 146.821 118.217 147.896L120.441 147.904L120.472 147.873C120.749 147.628 121.175 147.601 121.506 147.757L121.576 147.794C120.492 142.167 118.958 136.616 116.985 131.205L116.977 131.187L115.672 131.174C115.354 131.169 115.039 131.164 114.729 131.158C115.361 131.877 115.69 132.819 115.918 134.132C115.978 134.477 116.03 134.823 116.075 135.17C116.384 135.142 116.694 135.102 117.009 135.052C117.477 134.977 117.917 135.296 117.991 135.765C118.066 136.234 117.748 136.675 117.28 136.75C116.926 136.806 116.58 136.851 116.233 136.884C116.298 137.937 116.293 138.995 116.22 140.048L116.162 140.752L116.16 140.871L116.246 140.928C116.453 141.082 116.587 141.326 116.594 141.595L116.589 141.712L116.567 141.831C117.568 141.893 118.572 141.94 119.579 141.972C120.052 141.987 120.424 142.384 120.408 142.859C120.393 143.334 119.997 143.706 119.524 143.691C109.634 143.374 99.9439 141.649 91.1949 138.614C91.1367 138.594 91.0821 138.568 91.0314 138.537C91.2572 138.737 91.366 139.054 91.291 139.369C88.6854 150.33 87.0004 161.144 86.2924 171.775C86.2802 171.957 86.2122 172.123 86.1061 172.255C87.5045 173.058 88.5606 174.488 89.1422 176.448L89.1726 176.559L89.3274 176.433C91.0432 175.076 92.9261 175.168 94.8904 176.782L95.1358 176.991L95.1992 176.843C95.7437 175.593 96.3824 174.541 97.0724 173.773L97.0929 174.326C96.8902 169.914 97.2856 165.475 98.2651 161.169C98.3704 160.706 98.8301 160.417 99.2918 160.522C99.7537 160.628 100.043 161.088 99.9373 161.551C99.1191 165.149 98.7231 168.843 98.7587 172.533C99.8507 172.116 100.883 172.45 101.699 173.442L101.759 173.519L101.774 173.496C102.455 172.292 103.211 171.463 104.03 171.077L104.22 170.995C105.391 170.547 106.467 171.004 107.315 172.174L107.456 172.379L107.529 172.34C110.922 170.589 113.49 172.388 114.196 176.27L114.218 176.405L114.35 176.271C116.218 174.401 119.055 173.814 120.452 175.702L120.562 175.861C121.716 177.563 121.66 180.153 120.48 183.446C120.32 183.893 119.829 184.125 119.383 183.965C118.937 183.805 118.706 183.312 118.866 182.865C119.879 180.037 119.924 177.978 119.134 176.814C118.214 175.4 114.919 176.934 114.344 179.675C114.125 180.717 112.585 180.51 112.648 179.447C112.961 174.211 110.867 172.112 107.614 174.283C107.18 174.573 106.59 174.41 106.365 173.938C105.798 172.748 105.299 172.423 104.833 172.601C104.17 172.855 103.346 173.942 102.603 175.713C102.305 176.424 101.294 176.412 101.014 175.693C100.404 174.129 99.8215 173.829 99.0797 174.284C98.9812 174.344 98.8816 174.416 98.7813 174.499C98.7052 174.793 98.479 175.028 98.1865 175.112C97.4945 175.95 96.8111 177.246 96.2757 178.813C96.0631 179.435 95.2614 179.598 94.8246 179.107C92.5925 176.602 91.0687 176.62 89.3508 178.876C88.8873 179.485 87.9209 179.228 87.8191 178.469C87.3111 174.679 85.2876 172.89 82.4191 173.276C79.5494 173.663 78.0691 175.923 78.5773 179.715C78.6685 180.395 77.9663 180.903 77.3509 180.602C75.484 179.687 73.9287 180.767 72.3112 184.398C72.7115 185.147 73.1409 186.015 73.6164 187.014C73.8205 187.442 73.6395 187.955 73.2122 188.16C72.7848 188.364 72.2728 188.183 72.0687 187.755L71.5722 186.729C69.8242 183.187 68.8449 182.002 67.6647 182.161C66.7949 182.278 66.4028 183.399 66.7393 185.907C66.8691 186.873 65.5472 187.275 65.1192 186.4C64.2101 184.54 63.3 183.844 62.2303 183.988C61.4047 184.099 60.8074 184.627 60.0691 185.903L59.8786 186.243C59.7485 186.482 59.61 186.749 59.4508 187.068L58.1485 189.74C57.7475 190.547 56.5343 190.269 56.5232 189.367C56.4398 182.531 54.8507 178.187 52.2639 175.695L52.1638 175.602L52.1172 175.684C51.9051 176.076 51.7318 176.492 51.5951 176.93L51.4994 177.262C51.0839 178.835 51.132 180.547 51.4678 182.174C51.5653 182.647 51.661 182.99 51.7203 183.165C52.0081 184.015 50.9664 184.683 50.3172 184.064L49.5138 183.286L49.2382 183.016C48.4305 182.222 47.6227 181.408 46.8676 180.62L46.3268 180.051L45.7322 179.409C45.5436 179.203 45.3647 179.004 45.196 178.813L44.7094 178.25L44.7049 178.272C43.982 181.616 44.5379 187.063 45.7001 189.141L45.8183 189.337C46.0772 189.735 45.9654 190.267 45.5687 190.527C45.172 190.786 44.6407 190.674 44.3818 190.277C42.619 187.568 41.9659 179.606 43.6236 176.07C43.9092 175.46 44.751 175.402 45.118 175.965C45.5352 176.606 46.3964 177.617 47.5755 178.872L48.1045 179.429C48.4755 179.816 48.8601 180.211 49.2515 180.606L49.5452 180.9L49.5328 180.777C49.4334 179.603 49.4845 178.413 49.7371 177.255L49.8413 176.822C50.1339 175.714 50.612 174.698 51.2968 173.798C51.5841 173.42 52.1222 173.348 52.4988 173.636C55.4664 175.905 57.4452 179.829 58.0478 185.822L58.0641 186.005L58.16 185.82C58.2731 185.602 58.3785 185.406 58.4822 185.222L58.5855 185.041C59.5633 183.35 60.5485 182.48 62.0016 182.284C63.117 182.133 64.0965 182.458 64.956 183.231L64.9902 183.262L65.0028 183.173C65.2432 181.673 65.9709 180.736 67.2417 180.489L67.4365 180.457C68.9977 180.246 70.0609 180.835 71.2619 182.62C72.7878 179.684 74.581 178.281 76.6646 178.591L76.7704 178.608L76.7669 178.44C76.7337 174.686 78.6538 172.164 81.9356 171.611L82.1907 171.572C83.0253 171.46 83.8119 171.488 84.5386 171.65L84.581 171.66C85.2956 160.931 86.9954 150.023 89.6225 138.97C89.6474 138.866 89.6904 138.77 89.7474 138.686C89.6878 138.648 89.6322 138.598 89.5827 138.539C88.5728 137.347 88.0839 135.722 88.0919 133.967C88.0977 132.664 88.3028 131.569 88.8292 129.52L89.0144 128.832C89.4371 127.335 89.8543 126.396 90.5632 125.613L90.552 125.914C90.739 121.377 90.993 117.239 91.3339 113.331C83.1025 114.419 74.0703 116.961 67.8582 119.981C67.432 120.189 66.9189 120.01 66.7123 119.583C66.5056 119.156 66.6835 118.642 67.1097 118.434C73.5829 115.287 82.9716 112.66 91.4956 111.576C91.6847 109.586 91.899 107.653 92.1401 105.751C82.2173 106.508 69.7358 108.622 64.1618 110.875C63.7224 111.053 63.2227 110.84 63.0456 110.4C62.8685 109.959 63.0809 109.458 63.5202 109.281C69.338 106.929 82.2109 104.755 92.3697 104.01C92.5413 102.754 92.7254 101.508 92.9226 100.267C88.554 99.8966 83.8607 99.8934 78.9863 100.198L77.9656 100.266C72.873 100.631 67.9947 101.314 65.8465 101.788C65.3838 101.89 64.9264 101.597 64.8246 101.133C64.7229 100.669 65.0153 100.211 65.4779 100.109L65.9597 100.008C68.543 99.4909 73.6885 98.8063 78.8796 98.4819C83.8833 98.1693 88.7043 98.1753 93.203 98.5636C94.6115 90.2173 96.6328 81.9013 99.5143 71.5025C99.672 70.9335 100.342 70.6897 100.827 71.0246L101.264 71.3352C103.286 72.8088 106.418 75.5604 109.967 78.8999C110.856 76.3126 112.342 73.1297 113.983 70.6815C116.564 66.8318 119.42 64.787 122.451 65.3742L122.479 65.2988C122.509 65.2185 122.55 65.1454 122.599 65.0804C122.295 64.8204 122.01 64.4843 121.826 64.1868C121.395 63.4951 121.195 62.5087 121.165 61.3586C121.139 60.3772 121.274 59.5815 121.734 59.0904L121.868 58.9641L121.986 58.8751C122.591 58.4673 123.298 58.6941 123.742 59.2417ZM125.083 162.522L125.116 163.221C125.135 163.632 125.15 164.044 125.164 164.456L125.197 165.69L125.2 165.924L126.206 165.845C127.422 165.746 128.473 165.642 129.403 165.52L129.052 162.564C127.729 162.564 126.406 162.55 125.083 162.522ZM135.525 162.151L135.444 162.238C135.298 162.374 135.104 162.46 134.889 162.467C133.52 162.512 132.151 162.541 130.782 162.555C130.886 163.426 130.991 164.323 131.099 165.246C132.71 164.933 133.939 164.502 135.165 163.832L135.421 163.688L135.511 163.635L135.524 163.06C135.528 162.756 135.529 162.453 135.525 162.151ZM134.964 156.107C134.792 156.255 134.589 156.36 134.367 156.4L134.222 156.416L130.043 156.62C130.218 157.961 130.394 159.363 130.574 160.834C131.994 160.825 133.414 160.795 134.833 160.749C135.094 160.74 135.332 160.85 135.495 161.03C135.429 159.482 135.258 157.904 134.964 156.107ZM116.777 159.009L116.691 159.349C116.614 159.647 116.534 159.945 116.45 160.242L116.23 161.004L118.409 160.979L118.769 159.472C118.091 159.389 117.422 159.234 116.777 159.009ZM128.324 156.706L124.65 156.887C124.785 158.19 124.895 159.495 124.982 160.802L125.008 160.801C126.288 160.829 127.568 160.844 128.848 160.844L128.845 160.826C128.669 159.389 128.496 158.018 128.324 156.706ZM119.798 154.454L119.686 154.468C119.021 154.53 118.35 154.534 117.683 154.477C117.543 155.428 117.371 156.377 117.17 157.32L117.039 157.273C117.711 157.54 118.421 157.711 119.141 157.784C119.378 156.676 119.596 155.567 119.798 154.454ZM127.468 150.597L126.882 150.69C125.931 150.856 124.988 151.074 124.06 151.343L123.938 151.368C124.134 152.634 124.308 153.903 124.46 155.175L128.097 154.997C127.888 153.45 127.679 151.988 127.468 150.597ZM133.787 150.28L133.744 150.299C133.631 150.342 133.507 150.362 133.378 150.353C131.978 150.255 130.57 150.268 129.172 150.39C129.388 151.818 129.602 153.32 129.816 154.91L133.716 154.719L133.767 154.65C133.907 154.48 134.111 154.365 134.34 154.342L134.456 154.338C134.523 154.34 134.59 154.349 134.654 154.364C134.419 153.132 134.131 151.786 133.787 150.28ZM126.569 145.184L125.797 145.325C124.844 145.507 123.896 145.711 122.952 145.935C123.211 147.178 123.446 148.423 123.66 149.67L123.584 149.691C124.772 149.347 125.982 149.082 127.203 148.895C126.996 147.6 126.786 146.367 126.569 145.184ZM132.348 144.295L132.277 144.341C132.172 144.403 132.053 144.442 131.924 144.454C130.7 144.569 129.479 144.718 128.263 144.902C128.483 146.109 128.698 147.367 128.908 148.689C130.401 148.551 131.906 148.531 133.403 148.631L133.315 148.256L132.876 146.438C132.7 145.714 132.531 145.028 132.348 144.295ZM125.367 139.415L125.146 139.468C123.972 139.765 122.824 140.169 121.724 140.676C122.035 141.865 122.323 143.058 122.591 144.255L121.752 144.459C123.239 144.086 124.738 143.763 126.247 143.493C125.968 142.073 125.677 140.721 125.367 139.415ZM129.34 133.529C128.132 133.69 126.926 133.875 125.724 134.081C126.049 135.176 126.353 136.28 126.642 137.41C127.692 137.243 128.754 137.155 129.818 137.148C130.291 137.144 130.678 137.527 130.681 138.002C130.684 138.476 130.303 138.864 129.829 138.867C128.9 138.873 127.972 138.946 127.054 139.085C127.366 140.409 127.66 141.777 127.942 143.214C129.211 143.019 130.486 142.862 131.765 142.743C131.832 142.736 131.897 142.738 131.961 142.747L129.603 133.449C129.522 133.489 129.434 133.516 129.34 133.529ZM110.305 136.566L110.408 140.868C110.411 141.004 110.382 141.134 110.329 141.25C111.735 141.427 113.153 141.573 114.578 141.689C114.464 141.402 114.427 141.06 114.446 140.7L114.458 140.541C114.573 139.348 114.594 138.145 114.521 136.95C113.342 136.936 112.024 136.805 110.305 136.566ZM104.696 135.686L104.689 136.025C104.679 137.479 104.78 138.933 104.992 140.371L104.996 140.437C106.223 140.659 107.459 140.859 108.704 141.035L108.704 141.025L108.693 140.909L108.583 136.312L108.087 136.237C106.959 136.062 105.837 135.88 104.696 135.686ZM134.555 135.878L132.096 136.301L133.269 140.928C133.326 140.899 133.388 140.877 133.454 140.861L135.701 140.329L134.853 136.996C134.749 136.599 134.651 136.227 134.555 135.878ZM100.076 138.582C100.194 138.856 100.158 139.158 100.007 139.39C101.068 139.644 102.142 139.88 103.224 140.098L103.295 140.622C103.04 138.891 102.937 137.138 102.984 135.388C102.162 135.242 101.322 135.089 100.46 134.928L99.2622 134.701C99.2825 136.032 99.5537 137.36 100.076 138.582ZM137.592 134.784L137.551 134.886C137.534 134.922 137.514 134.958 137.492 134.993C137.255 135.358 136.989 135.464 136.568 135.537L136.254 135.589C136.302 135.764 136.35 135.944 136.399 136.129L136.73 137.41L137.371 139.935L140.721 139.144C140.82 139.121 140.922 139.109 141.023 139.107L141.175 139.112C141.236 139.118 141.294 139.129 141.35 139.146C140.652 138.347 140.179 137.814 140.001 137.636L139.992 137.624L139.444 137.052C139.078 136.66 138.724 136.258 138.38 135.846C138.075 135.481 137.811 135.13 137.592 134.784ZM124.025 134.39L123.735 134.444C122.538 134.675 121.344 134.928 120.155 135.203C120.552 136.462 120.926 137.725 121.276 138.995C122.461 138.466 123.694 138.048 124.955 137.744C124.663 136.604 124.354 135.492 124.025 134.39ZM95.1384 137.987L95.1691 138.091C96.2302 138.409 97.3035 138.708 98.3877 138.988L98.5 139.26C97.8413 137.719 97.5239 136.042 97.5469 134.37L94.8019 133.823C94.6438 135.217 94.7517 136.641 95.1384 137.987ZM89.8071 133.974C89.8011 135.279 90.1342 136.453 90.7838 137.295C91.001 136.996 91.3919 136.863 91.7559 136.989C92.2528 137.161 92.7529 137.33 93.256 137.493C92.9924 136.176 92.9484 134.818 93.1148 133.486L89.8794 132.841C89.8313 133.232 89.8088 133.596 89.8071 133.974ZM110.171 130.993L110.266 134.824C111.956 135.065 113.234 135.2 114.35 135.227C114.315 134.959 114.274 134.692 114.228 134.426C114.022 133.237 113.738 132.523 113.239 132.092C112.952 131.845 112.869 131.448 113.005 131.115L112.531 131.099C111.717 131.07 110.932 131.035 110.171 130.993ZM132.508 130.513L131.864 130.623C131.478 130.685 131.09 130.738 130.701 130.783L130.802 131.191L131.672 134.628L134.069 134.217C133.625 132.819 133.195 131.815 132.6 130.757C132.556 130.679 132.525 130.596 132.508 130.513ZM105.148 130.553L105.162 130.595C105.192 130.713 105.198 130.839 105.174 130.966C104.989 131.954 104.857 132.953 104.778 133.955C106.034 134.171 107.264 134.371 108.502 134.561L108.541 134.567L108.458 131.014C108.457 130.969 108.46 130.924 108.465 130.881C107.306 130.794 106.205 130.686 105.148 130.553ZM100.835 73.1603L100.164 75.6236C97.8365 84.2557 96.1419 91.4877 94.9132 98.7325C97.5017 99.0173 99.9711 99.4368 102.296 100.003C102.756 100.115 103.038 100.58 102.926 101.042C102.814 101.503 102.351 101.786 101.89 101.674C99.6131 101.119 97.1845 100.709 94.6348 100.431C94.4502 101.582 94.2783 102.734 94.1171 103.895C97.234 103.712 100.018 103.681 102.157 103.841C102.63 103.877 102.984 104.289 102.949 104.763C102.913 105.236 102.502 105.591 102.029 105.556C99.884 105.395 97.055 105.434 93.8847 105.63C93.6434 107.507 93.4283 109.415 93.2372 111.374C95.7208 111.119 98.1047 111.004 100.292 111.057C100.766 111.069 101.14 111.463 101.129 111.937C101.117 112.412 100.724 112.788 100.251 112.776C98.0362 112.722 95.6079 112.847 93.0763 113.121C92.751 116.756 92.5045 120.59 92.3182 124.762L92.2994 125.197C92.4147 125.198 92.5317 125.222 92.6435 125.273C99.6031 128.419 105.507 129.346 116.404 129.463L116.79 129.117C120.273 125.987 125.538 125.357 129.432 127.698L129.753 127.9L130.036 128.086L130.285 129.097L130.868 129.03C132.085 128.872 133.29 128.629 134.471 128.305C134.928 128.179 135.4 128.448 135.525 128.906C135.65 129.364 135.381 129.837 134.925 129.963L134.223 130.144L134.261 130.216C134.87 131.342 135.315 132.432 135.776 133.926L135.838 133.917L135.855 133.879C135.935 133.715 136.068 133.576 136.24 133.49L136.347 133.444C136.575 133.367 136.782 133.366 136.961 133.42C136.826 132.958 136.775 132.483 136.811 131.973C136.82 131.847 136.836 131.723 136.861 131.602L136.937 131.685C136.048 130.778 135.382 128.806 135.75 127.66C135.909 127.164 136.132 126.746 136.459 126.411C136.591 126.275 136.749 126.159 136.921 126.065C136.928 125.983 136.941 125.893 136.957 125.792L137.02 125.41C137.094 124.983 137.136 124.842 137.269 124.512C137.596 123.7 138.18 123.089 139.071 122.795L139.236 122.748L139.196 122.655C138.867 121.874 138.558 121.05 138.278 120.201L138.059 119.522C137.138 116.564 136.71 113.913 136.939 112.161C136.377 112.258 135.798 112.308 135.209 112.308C131.156 112.308 127.648 109.969 125.956 106.564C125.056 107.674 123.823 108.554 122.422 109.061C121.976 109.222 121.485 108.991 121.324 108.544C121.163 108.098 121.394 107.605 121.839 107.444C123.307 106.913 124.536 105.866 125.219 104.594C124.995 103.751 124.877 102.865 124.877 101.951C124.877 96.2313 129.503 91.5943 135.209 91.5943C140.034 91.5943 144.087 94.911 145.223 99.3943C145.35 99.2716 145.517 99.1887 145.705 99.1653C147.934 98.8884 150.403 98.6764 153.003 98.5276C152.76 97.0827 152.509 95.648 152.252 94.2257L151.888 92.2327C150.978 87.3189 150.053 82.833 149.231 79.265L148.96 78.1104C148.596 76.5799 148.269 75.3078 147.999 74.3709L147.799 73.7041C147.759 73.5757 147.721 73.4591 147.685 73.3547L147.626 73.189L147.473 73.2622C147.076 73.4656 146.546 73.8325 145.896 74.352L145.491 74.6824C144.729 75.3154 143.855 76.1043 142.741 77.155L141.032 78.7883L138.127 81.5798C134.887 84.6665 134.351 85.0014 133.526 84.9545L133.414 84.9462L133.223 84.9326C133.095 86.1311 132.786 87.0805 132.268 87.8893C132.257 87.9434 132.239 87.9978 132.216 88.051C132.138 88.2244 132.011 88.3596 131.858 88.447L131.749 88.5779C131.2 89.2036 130.494 89.751 129.613 90.2871C127.861 91.3544 125.949 91.728 123.515 91.6782C121.642 91.6424 120.237 91.3636 118.906 90.6174C116.635 89.3444 115.481 87.4216 115.368 85.0639L115.489 85.0628C114.189 85.066 113.857 85.0119 113.563 84.747L111.68 82.9113C111.08 82.3299 110.485 81.759 109.9 81.2017C109.813 81.1461 109.738 81.0745 109.677 80.9924C106.357 77.8359 103.344 75.1353 101.225 73.4637L100.835 73.1603ZM100.104 129.662L100.138 129.73C100.217 129.935 100.218 130.171 100.122 130.388C99.7595 131.211 99.5111 132.083 99.3775 132.974C99.452 132.988 99.5227 133.002 99.5932 133.015C100.798 133.245 101.954 133.458 103.081 133.659C103.166 132.65 103.302 131.645 103.488 130.649C103.509 130.535 103.553 130.43 103.612 130.338C102.399 130.152 101.237 129.928 100.104 129.662ZM122.125 128.24L122.047 128.258C120.878 128.534 119.75 129.034 118.748 129.746L118.451 129.966L118.376 130.025L118.57 130.545C118.936 131.546 119.287 132.553 119.624 133.564L119.171 133.668C120.612 133.326 122.059 133.015 123.513 132.736C123.092 131.423 122.638 130.112 122.145 128.776C122.079 128.597 122.076 128.41 122.125 128.24ZM153.293 100.232L152.797 100.262C150.347 100.407 148.022 100.61 145.916 100.872C145.761 100.891 145.61 100.867 145.476 100.81C145.519 101.184 145.54 101.565 145.54 101.951C145.54 105.774 143.474 109.113 140.4 110.907C141.747 112.243 143.113 114.935 144.204 118.225C144.499 119.114 144.753 120 144.962 120.858L145.109 121.495L145.136 121.625L145.33 121.721C147.045 122.593 149.073 124.172 151.399 126.374C153.385 128.253 155.308 130.276 157.454 132.714C156.87 126.026 156.085 119.197 155.15 112.436C151.741 111.682 148.493 111.168 145.738 110.935C145.266 110.895 144.916 110.479 144.956 110.006C144.993 109.572 145.344 109.241 145.766 109.219L145.883 109.221C148.547 109.447 151.641 109.922 154.894 110.618C154.737 109.509 154.576 108.402 154.41 107.299C153.593 107.31 152.754 107.324 151.889 107.344L149.475 107.406C149.002 107.418 148.608 107.043 148.596 106.569C148.584 106.094 148.958 105.7 149.432 105.688L152.706 105.607C153.195 105.598 153.676 105.59 154.149 105.584C153.873 103.788 153.587 102.003 153.293 100.232ZM96.3431 128.587L96.3733 128.647C96.472 128.892 96.4568 129.18 96.3071 129.422C95.7858 130.265 95.3909 131.184 95.1268 132.141L97.6922 132.647C97.8507 131.631 98.138 130.635 98.5537 129.692C98.6182 129.546 98.7183 129.427 98.8393 129.341C97.9988 129.117 97.1698 128.866 96.3431 128.587ZM123.82 128.012L123.676 128.021C123.706 128.07 123.732 128.123 123.753 128.179L124.082 129.082C124.485 130.205 124.862 131.314 125.215 132.426C126.51 132.199 127.81 131.999 129.113 131.824L129.193 131.819L128.534 129.162L128.259 129.006C126.907 128.27 125.365 127.947 123.82 128.012ZM90.5739 129.631L90.49 129.95C90.3752 130.397 90.277 130.793 90.194 131.153L90.1696 131.146C90.3813 131.189 92.073 131.529 93.4427 131.804C93.7477 130.648 94.219 129.535 94.8492 128.516C94.9414 128.367 95.0718 128.256 95.2198 128.188C94.138 127.792 93.0513 127.343 91.9383 126.84L91.8269 126.78C91.295 127.383 90.9585 128.2 90.5739 129.631ZM138.748 111.695C138.301 111.845 138.554 115.584 139.905 119.659C140.126 120.327 140.366 120.978 140.618 121.602C141.311 121.01 142.198 120.819 143.224 120.984C143.043 120.262 142.825 119.516 142.577 118.768C141.226 114.694 139.196 111.547 138.748 111.695ZM135.209 93.3136C130.45 93.3136 126.592 97.1809 126.592 101.951C126.592 102.69 126.685 103.407 126.859 104.092C126.981 104.254 127.041 104.456 127.027 104.66C128.159 108.104 131.394 110.588 135.209 110.588C139.967 110.588 143.825 106.721 143.825 101.951C143.825 97.1809 139.967 93.3136 135.209 93.3136ZM135.246 97.1986L135.361 97.2142C135.632 97.2694 135.847 97.4469 135.96 97.6775L135.986 97.7408L136.144 97.8551C138.045 99.3274 138.276 102.624 136.544 104.334L136.376 104.49C135.941 104.867 135.266 104.717 135.032 104.19C134.164 102.24 133.922 99.9931 134.35 97.8852C134.436 97.4587 134.824 97.1707 135.246 97.1986ZM115.403 99.1539C115.871 99.2264 116.191 99.6656 116.119 100.135C116.047 100.604 115.609 100.926 115.14 100.853C113.86 100.655 112.47 101.249 111.727 102.312C111.455 102.701 110.92 102.795 110.532 102.523C110.144 102.25 110.05 101.714 110.322 101.325C111.44 99.7258 113.477 98.8554 115.403 99.1539ZM123.165 87.672L121.759 87.7493C120.121 87.8317 119.175 87.8349 118.076 87.7451C118.385 88.1349 118.772 88.4882 119.238 88.8049L119.497 88.9727L119.743 89.1167C120.737 89.6738 121.825 89.9065 123.328 89.9536L123.165 87.672ZM125.302 87.5762L124.88 87.5893L125.048 89.9226C126.473 89.8127 127.647 89.4728 128.722 88.8175C129.151 88.5568 129.522 88.3021 129.841 88.0384C128.559 87.6732 127.094 87.5407 125.302 87.5762ZM128.863 84.8017L128.59 84.8029C128.075 84.804 127.531 84.8081 126.957 84.8152L124.683 84.8547L124.756 85.8707L125.287 85.8568C127.55 85.813 129.376 86.0202 131.018 86.6081C131.193 86.2646 131.32 85.884 131.41 85.4512L131.464 85.1563L131.465 85.1422L130.542 85.0045C129.983 84.9269 129.423 84.8593 128.863 84.8017ZM122.967 84.896L117.251 85.0413L117.085 85.0667L117.091 85.1565C117.124 85.5816 117.202 85.9832 117.326 86.3612C117.5 86.1314 117.782 85.9937 118.088 86.0206L118.508 86.053C119.408 86.1125 120.275 86.1027 121.699 86.0307L123.043 85.9547L122.967 84.896ZM111.417 79.9513L111.34 80.2016C112.031 80.861 112.734 81.5383 113.443 82.229L114.546 83.3082L114.845 83.3263L115.196 83.3359C115.392 83.3392 115.617 83.3405 115.873 83.3397L117.15 83.3197C121.075 82.7657 125.019 82.6861 128.942 83.0815C130.74 83.0841 132.178 83.1243 133.304 83.2118L133.565 83.2335C133.75 83.2499 134.786 82.365 137.22 80.0605L137.136 79.7753C135.185 73.4327 131.044 67.1879 127.201 67.0304C127.349 67.5863 127.588 68.2108 127.959 69.0719L128.457 70.2188C128.657 70.6875 128.788 71.0167 128.914 71.3728L128.967 71.5277L129.031 71.7187C130.151 71.6868 130.806 71.5617 131.432 71.2451C131.855 71.0314 132.37 71.2017 132.584 71.6256C132.797 72.0496 132.627 72.5665 132.204 72.7803C131.39 73.192 130.621 73.3651 129.484 73.4233C129.717 74.5729 129.818 75.7983 129.83 77.3668C131.119 77.3272 132.255 77.153 133.391 76.8256C133.846 76.6944 134.321 76.9579 134.452 77.4142C134.583 77.8705 134.32 78.3468 133.865 78.478C132.555 78.8556 131.265 79.0506 129.816 79.0907C129.803 79.5999 129.785 80.1449 129.763 80.7294C129.745 81.2039 129.347 81.5738 128.873 81.5557C128.4 81.5376 128.031 81.1384 128.049 80.6639L128.092 79.345L128.099 79.0714C127.141 79.0277 126.101 78.9319 124.94 78.7899L123.512 78.6019L120.852 78.2313C120.688 78.2097 120.536 78.1901 120.388 78.1718C120.312 78.9593 120.352 79.6361 120.51 80.3148C120.617 80.7771 120.331 81.2395 119.869 81.3474C119.408 81.4554 118.947 81.1681 118.839 80.7057C118.631 79.8127 118.581 78.9569 118.679 77.9885L119.605 78.0799C117.9 77.8913 116.184 77.7998 114.471 77.8062C113.997 77.808 113.612 77.4245 113.61 76.9497C113.608 76.4749 113.991 76.0886 114.464 76.0868C115.967 76.0812 117.471 76.1481 118.969 76.2871C119.096 75.7144 119.263 75.0865 119.465 74.3886L119.793 73.282C118.774 73.2466 117.755 73.2056 116.735 73.159C116.262 73.1375 115.896 72.7355 115.917 72.2612C115.939 71.7869 116.34 71.4199 116.813 71.4415C117.982 71.4948 119.149 71.5408 120.316 71.5794C120.795 70.0539 121.305 68.5401 121.843 67.0362C117.853 66.7003 113.51 73.2003 111.417 79.9513ZM121.566 73.3381L121.559 73.359C121.407 73.8611 121.258 74.364 121.112 74.8679C120.94 75.46 120.798 75.9928 120.684 76.4803L121.068 76.5256L124.142 76.9529C125.657 77.1592 126.955 77.2948 128.114 77.3496C128.098 75.7589 127.987 74.5636 127.732 73.4429L128.122 73.4475C125.941 73.4369 123.755 73.4004 121.566 73.3381ZM124.886 65.9534L124.804 66.0072C124.571 66.1329 124.286 66.1463 124.037 66.0307L123.858 66.5258C123.851 66.584 123.837 66.6422 123.817 66.6997C123.794 66.7657 123.763 66.8271 123.727 66.8833L124.085 65.9034C123.376 67.7962 122.713 69.7059 122.098 71.63C123.807 71.6784 125.511 71.7082 127.213 71.7222L127.196 71.671C127.073 71.3468 126.926 70.9947 126.692 70.4594L126.529 70.0861C125.996 68.87 125.674 68.0412 125.486 67.2635C125.18 67.2197 124.91 67.0108 124.801 66.6992C124.71 66.4407 124.75 66.168 124.886 65.9534Z" fill="black"/>
</g>
<defs>
<clipPath id="clip0">
<rect width="256" height="256" fill="white"/>
</clipPath>
</defs>
</svg>
